<svg width="920" height="300" viewBox="0 0 920 300" fill="none" xmlns="http://www.w3.org/2000/svg" role="img" aria-label="Parler Protocol — chat protocol for AI agents">
  <defs>
    <radialGradient id="glowB" cx="0.5" cy="0.5" r="0.5">
      <stop stop-color="#3b9eff" stop-opacity="0.18"/>
      <stop offset="1" stop-color="#3b9eff" stop-opacity="0"/>
    </radialGradient>
    <radialGradient id="glowV" cx="0.5" cy="0.5" r="0.5">
      <stop stop-color="#9281f7" stop-opacity="0.22"/>
      <stop offset="1" stop-color="#9281f7" stop-opacity="0"/>
    </radialGradient>
    <clipPath id="card"><rect x="1.5" y="1.5" width="917" height="297" rx="21"/></clipPath>
  </defs>

  <!-- clipped background: canvas, blooms, and the ambient agent-mesh particle field -->
  <g clip-path="url(#card)">
    <rect width="920" height="300" fill="#000000"/>
    <ellipse cx="300" cy="14" rx="380" ry="190" fill="url(#glowB)"/>
    <ellipse cx="720" cy="6" rx="320" ry="170" fill="url(#glowV)"/>

    <!-- mesh links -->
    <g>
    <line x1="300.0" y1="49.4" x2="338.0" y2="22.7" stroke="#3b9eff" stroke-width="1" opacity="0.072"/>
    <line x1="300.0" y1="49.4" x2="259.7" y2="80.6" stroke="#3b9eff" stroke-width="1" opacity="0.066"/>
    <line x1="300.0" y1="49.4" x2="234.7" y2="90.4" stroke="#3b9eff" stroke-width="1" opacity="0.034"/>
    <line x1="338.0" y1="22.7" x2="386.5" y2="43.7" stroke="#3b9eff" stroke-width="1" opacity="0.064"/>
    <line x1="338.0" y1="22.7" x2="405.9" y2="11.2" stroke="#3b9eff" stroke-width="1" opacity="0.044"/>
    <line x1="69.4" y1="32.1" x2="113.0" y2="94.8" stroke="#3b9eff" stroke-width="1" opacity="0.035"/>
    <line x1="69.4" y1="32.1" x2="123.4" y2="77.3" stroke="#3b9eff" stroke-width="1" opacity="0.042"/>
    <line x1="69.4" y1="32.1" x2="143.0" y2="56.8" stroke="#3b9eff" stroke-width="1" opacity="0.033"/>
    <line x1="208.7" y1="186.7" x2="193.0" y2="202.0" stroke="#3b9eff" stroke-width="1" opacity="0.046"/>
    <line x1="208.7" y1="186.7" x2="258.8" y2="125.6" stroke="#3b9eff" stroke-width="1" opacity="0.031"/>
    <line x1="208.7" y1="186.7" x2="211.9" y2="155.1" stroke="#3b9eff" stroke-width="1" opacity="0.09"/>
    <line x1="892.4" y1="19.4" x2="861.5" y2="80.8" stroke="#3b9eff" stroke-width="1" opacity="0.044"/>
    <line x1="113.0" y1="94.8" x2="123.4" y2="77.3" stroke="#3b9eff" stroke-width="1" opacity="0.104"/>
    <line x1="113.0" y1="94.8" x2="143.0" y2="56.8" stroke="#3b9eff" stroke-width="1" opacity="0.069"/>
    <line x1="586.1" y1="113.3" x2="562.2" y2="151.6" stroke="#3b9eff" stroke-width="1" opacity="0.033"/>
    <line x1="586.1" y1="113.3" x2="630.9" y2="128.5" stroke="#3b9eff" stroke-width="1" opacity="0.032"/>
    <line x1="193.0" y1="202.0" x2="211.9" y2="155.1" stroke="#3b9eff" stroke-width="1" opacity="0.067"/>
    <line x1="193.0" y1="202.0" x2="168.1" y2="233.3" stroke="#3b9eff" stroke-width="1" opacity="0.036"/>
    <line x1="417.5" y1="92.3" x2="425.2" y2="54.4" stroke="#3b9eff" stroke-width="1" opacity="0.037"/>
    <line x1="417.5" y1="92.3" x2="386.5" y2="43.7" stroke="#3b9eff" stroke-width="1" opacity="0.058"/>
    <line x1="417.5" y1="92.3" x2="418.0" y2="103.7" stroke="#3b9eff" stroke-width="1" opacity="0.052"/>
    <line x1="527.6" y1="157.3" x2="488.9" y2="156.8" stroke="#3b9eff" stroke-width="1" opacity="0.037"/>
    <line x1="527.6" y1="157.3" x2="562.2" y2="151.6" stroke="#3b9eff" stroke-width="1" opacity="0.039"/>
    <line x1="527.6" y1="157.3" x2="490.2" y2="143.7" stroke="#3b9eff" stroke-width="1" opacity="0.036"/>
    <line x1="385.7" y1="224.1" x2="389.4" y2="268.5" stroke="#3b9eff" stroke-width="1" opacity="0.033"/>
    <line x1="612.7" y1="226.2" x2="605.8" y2="268.0" stroke="#3b9eff" stroke-width="1" opacity="0.035"/>
    <line x1="637.3" y1="177.2" x2="656.2" y2="196.2" stroke="#3b9eff" stroke-width="1" opacity="0.097"/>
    <line x1="637.3" y1="177.2" x2="630.9" y2="128.5" stroke="#3b9eff" stroke-width="1" opacity="0.069"/>
    <line x1="637.3" y1="177.2" x2="687.5" y2="195.4" stroke="#3b9eff" stroke-width="1" opacity="0.063"/>
    <line x1="863.8" y1="142.5" x2="853.7" y2="130.9" stroke="#3b9eff" stroke-width="1" opacity="0.111"/>
    <line x1="863.8" y1="142.5" x2="861.5" y2="80.8" stroke="#3b9eff" stroke-width="1" opacity="0.053"/>
    <line x1="863.8" y1="142.5" x2="840.6" y2="170.3" stroke="#3b9eff" stroke-width="1" opacity="0.085"/>
    <line x1="752.3" y1="88.0" x2="730.5" y2="119.0" stroke="#3b9eff" stroke-width="1" opacity="0.083"/>
    <line x1="752.3" y1="88.0" x2="769.1" y2="144.1" stroke="#3b9eff" stroke-width="1" opacity="0.057"/>
    <line x1="752.3" y1="88.0" x2="761.9" y2="52.5" stroke="#3b9eff" stroke-width="1" opacity="0.084"/>
    <line x1="425.2" y1="54.4" x2="386.5" y2="43.7" stroke="#3b9eff" stroke-width="1" opacity="0.08"/>
    <line x1="425.2" y1="54.4" x2="405.9" y2="11.2" stroke="#3b9eff" stroke-width="1" opacity="0.071"/>
    <line x1="123.4" y1="77.3" x2="143.0" y2="56.8" stroke="#3b9eff" stroke-width="1" opacity="0.094"/>
    <line x1="258.8" y1="125.6" x2="211.9" y2="155.1" stroke="#3b9eff" stroke-width="1" opacity="0.061"/>
    <line x1="258.8" y1="125.6" x2="259.7" y2="80.6" stroke="#3b9eff" stroke-width="1" opacity="0.074"/>
    <line x1="540.9" y1="81.7" x2="563.6" y2="48.8" stroke="#3b9eff" stroke-width="1" opacity="0.08"/>
    <line x1="540.9" y1="81.7" x2="499.2" y2="13.8" stroke="#3b9eff" stroke-width="1" opacity="0.03"/>
    <line x1="540.9" y1="81.7" x2="511.3" y2="99.9" stroke="#3b9eff" stroke-width="1" opacity="0.039"/>
    <line x1="520.2" y1="280.5" x2="489.6" y2="230.4" stroke="#3b9eff" stroke-width="1" opacity="0.057"/>
    <line x1="520.2" y1="280.5" x2="535.7" y2="266.4" stroke="#3b9eff" stroke-width="1" opacity="0.047"/>
    <line x1="620.0" y1="21.5" x2="563.6" y2="48.8" stroke="#3b9eff" stroke-width="1" opacity="0.052"/>
    <line x1="620.0" y1="21.5" x2="638.1" y2="81.2" stroke="#3b9eff" stroke-width="1" opacity="0.052"/>
    <line x1="730.5" y1="119.0" x2="769.1" y2="144.1" stroke="#3b9eff" stroke-width="1" opacity="0.072"/>
    <line x1="730.5" y1="119.0" x2="761.9" y2="52.5" stroke="#3b9eff" stroke-width="1" opacity="0.038"/>
    <line x1="62.5" y1="25.4" x2="84.0" y2="35.4" stroke="#3b9eff" stroke-width="1" opacity="0.1"/>
    <line x1="62.5" y1="25.4" x2="121.4" y2="49.5" stroke="#3b9eff" stroke-width="1" opacity="0.051"/>
    <line x1="62.5" y1="25.4" x2="124.9" y2="10.1" stroke="#3b9eff" stroke-width="1" opacity="0.05"/>
    <line x1="143.3" y1="35.2" x2="84.0" y2="35.4" stroke="#3b9eff" stroke-width="1" opacity="0.056"/>
    <line x1="143.3" y1="35.2" x2="152.6" y2="12.7" stroke="#3b9eff" stroke-width="1" opacity="0.1"/>
    <line x1="143.3" y1="35.2" x2="212.0" y2="62.7" stroke="#3b9eff" stroke-width="1" opacity="0.038"/>
    <line x1="563.6" y1="48.8" x2="499.2" y2="13.8" stroke="#3b9eff" stroke-width="1" opacity="0.038"/>
    <line x1="117.5" y1="250.5" x2="168.1" y2="233.3" stroke="#3b9eff" stroke-width="1" opacity="0.063"/>
    <line x1="117.5" y1="250.5" x2="72.4" y2="198.8" stroke="#3b9eff" stroke-width="1" opacity="0.044"/>
    <line x1="117.5" y1="250.5" x2="64.4" y2="289.7" stroke="#3b9eff" stroke-width="1" opacity="0.047"/>
    <line x1="84.0" y1="35.4" x2="152.6" y2="12.7" stroke="#3b9eff" stroke-width="1" opacity="0.04"/>
    <line x1="152.6" y1="12.7" x2="212.0" y2="62.7" stroke="#3b9eff" stroke-width="1" opacity="0.033"/>
    <line x1="638.1" y1="81.2" x2="630.9" y2="128.5" stroke="#3b9eff" stroke-width="1" opacity="0.07"/>
    <line x1="638.1" y1="81.2" x2="678.7" y2="79.6" stroke="#3b9eff" stroke-width="1" opacity="0.079"/>
    <line x1="489.6" y1="230.4" x2="455.5" y2="246.4" stroke="#3b9eff" stroke-width="1" opacity="0.037"/>
    <line x1="900.3" y1="251.6" x2="856.8" y2="290.6" stroke="#3b9eff" stroke-width="1" opacity="0.057"/>
    <line x1="259.7" y1="80.6" x2="212.0" y2="62.7" stroke="#3b9eff" stroke-width="1" opacity="0.066"/>
    <line x1="769.1" y1="144.1" x2="840.6" y2="170.3" stroke="#3b9eff" stroke-width="1" opacity="0.035"/>
    <line x1="605.8" y1="268.0" x2="535.7" y2="266.4" stroke="#3b9eff" stroke-width="1" opacity="0.042"/>
    <line x1="168.1" y1="233.3" x2="205.4" y2="280.3" stroke="#3b9eff" stroke-width="1" opacity="0.055"/>
    <line x1="365.4" y1="121.6" x2="373.5" y2="106.1" stroke="#3b9eff" stroke-width="1" opacity="0.049"/>
    <line x1="365.4" y1="121.6" x2="352.5" y2="142.7" stroke="#3b9eff" stroke-width="1" opacity="0.045"/>
    <line x1="121.4" y1="49.5" x2="124.9" y2="10.1" stroke="#3b9eff" stroke-width="1" opacity="0.081"/>
    <line x1="121.4" y1="49.5" x2="130.5" y2="41.0" stroke="#3b9eff" stroke-width="1" opacity="0.114"/>
    <line x1="124.9" y1="10.1" x2="130.5" y2="41.0" stroke="#3b9eff" stroke-width="1" opacity="0.091"/>
    <line x1="853.7" y1="130.9" x2="861.5" y2="80.8" stroke="#3b9eff" stroke-width="1" opacity="0.067"/>
    <line x1="853.7" y1="130.9" x2="840.6" y2="170.3" stroke="#3b9eff" stroke-width="1" opacity="0.078"/>
    <line x1="234.7" y1="90.4" x2="183.7" y2="97.7" stroke="#3b9eff" stroke-width="1" opacity="0.066"/>
    <line x1="234.7" y1="90.4" x2="247.1" y2="17.4" stroke="#3b9eff" stroke-width="1" opacity="0.037"/>
    <line x1="488.9" y1="156.8" x2="467.0" y2="167.8" stroke="#3b9eff" stroke-width="1" opacity="0.045"/>
    <line x1="488.9" y1="156.8" x2="490.2" y2="143.7" stroke="#3b9eff" stroke-width="1" opacity="0.051"/>
    <line x1="9.6" y1="236.2" x2="72.4" y2="198.8" stroke="#3b9eff" stroke-width="1" opacity="0.039"/>
    <line x1="9.6" y1="236.2" x2="64.4" y2="289.7" stroke="#3b9eff" stroke-width="1" opacity="0.034"/>
    <line x1="511.3" y1="99.9" x2="490.2" y2="143.7" stroke="#3b9eff" stroke-width="1" opacity="0.031"/>
    <line x1="102.3" y1="167.4" x2="72.4" y2="198.8" stroke="#3b9eff" stroke-width="1" opacity="0.076"/>
    <line x1="102.3" y1="167.4" x2="123.3" y2="157.8" stroke="#3b9eff" stroke-width="1" opacity="0.101"/>
    <line x1="130.5" y1="41.0" x2="183.7" y2="97.7" stroke="#3b9eff" stroke-width="1" opacity="0.033"/>
    <line x1="656.2" y1="196.2" x2="687.5" y2="195.4" stroke="#3b9eff" stroke-width="1" opacity="0.041"/>
    <line x1="761.9" y1="52.5" x2="733.9" y2="30.1" stroke="#3b9eff" stroke-width="1" opacity="0.085"/>
    <line x1="405.9" y1="11.2" x2="423.2" y2="51.4" stroke="#3b9eff" stroke-width="1" opacity="0.075"/>
    <line x1="247.1" y1="17.4" x2="233.4" y2="10.4" stroke="#3b9eff" stroke-width="1" opacity="0.111"/>
    <line x1="389.4" y1="268.5" x2="437.1" y2="275.2" stroke="#3b9eff" stroke-width="1" opacity="0.031"/>
    <line x1="389.4" y1="268.5" x2="455.5" y2="246.4" stroke="#3b9eff" stroke-width="1" opacity="0.043"/>
    <line x1="733.9" y1="30.1" x2="678.7" y2="79.6" stroke="#3b9eff" stroke-width="1" opacity="0.037"/>
    <line x1="418.0" y1="103.7" x2="373.5" y2="106.1" stroke="#3b9eff" stroke-width="1" opacity="0.033"/>
    <line x1="51.7" y1="64.1" x2="10.5" y2="82.1" stroke="#3b9eff" stroke-width="1" opacity="0.074"/>
    <line x1="51.7" y1="64.1" x2="26.4" y2="93.6" stroke="#3b9eff" stroke-width="1" opacity="0.081"/>
    <line x1="437.1" y1="275.2" x2="455.5" y2="246.4" stroke="#3b9eff" stroke-width="1" opacity="0.039"/>
    <line x1="898.1" y1="104.7" x2="889.1" y2="163.6" stroke="#3b9eff" stroke-width="1" opacity="0.056"/>
    <line x1="373.5" y1="106.1" x2="352.5" y2="142.7" stroke="#3b9eff" stroke-width="1" opacity="0.035"/>
    <line x1="10.5" y1="82.1" x2="26.4" y2="93.6" stroke="#3b9eff" stroke-width="1" opacity="0.105"/>
    </g>
    <!-- particles -->
    <g>
    <circle cx="300.0" cy="49.4" r="1.4" fill="#3b9eff" opacity="0.66"/>
    <circle cx="338.0" cy="22.7" r="1.3" fill="#3b9eff" opacity="0.63"/>
    <circle cx="69.4" cy="32.1" r="2.3" fill="#3b9eff" opacity="0.45"/>
    <circle cx="208.7" cy="186.7" r="1.9" fill="#3b9eff" opacity="0.55"/>
    <circle cx="892.4" cy="19.4" r="1.5" fill="#9281f7" opacity="0.55"/>
    <circle cx="113.0" cy="94.8" r="1.3" fill="#3b9eff" opacity="0.52"/>
    <circle cx="586.1" cy="113.3" r="1.0" fill="#9281f7" opacity="0.22"/>
    <circle cx="193.0" cy="202.0" r="1.2" fill="#3b9eff" opacity="0.2"/>
    <circle cx="417.5" cy="92.3" r="1.8" fill="#3b9eff" opacity="0.24"/>
    <circle cx="527.6" cy="157.3" r="1.7" fill="#9281f7" opacity="0.21"/>
    <circle cx="385.7" cy="224.1" r="1.5" fill="#3b9eff" opacity="0.18"/>
    <circle cx="612.7" cy="226.2" r="1.9" fill="#9281f7" opacity="0.2"/>
    <circle cx="637.3" cy="177.2" r="1.8" fill="#baa7ff" opacity="0.52"/>
    <circle cx="863.8" cy="142.5" r="1.2" fill="#baa7ff" opacity="0.52"/>
    <circle cx="752.3" cy="88.0" r="2.2" fill="#9281f7" opacity="0.59"/>
    <circle cx="425.2" cy="54.4" r="1.2" fill="#70b8ff" opacity="0.51"/>
    <circle cx="123.4" cy="77.3" r="2.4" fill="#3b9eff" opacity="0.49"/>
    <circle cx="413.9" cy="164.2" r="1.9" fill="#70b8ff" opacity="0.23"/>
    <circle cx="258.8" cy="125.6" r="2.5" fill="#70b8ff" opacity="0.56"/>
    <circle cx="143.0" cy="56.8" r="1.5" fill="#3b9eff" opacity="0.49"/>
    <circle cx="540.9" cy="81.7" r="1.4" fill="#9281f7" opacity="0.19"/>
    <circle cx="520.2" cy="280.5" r="1.4" fill="#9281f7" opacity="0.17"/>
    <circle cx="620.0" cy="21.5" r="2.3" fill="#baa7ff" opacity="0.62"/>
    <circle cx="730.5" cy="119.0" r="1.3" fill="#baa7ff" opacity="0.57"/>
    <circle cx="62.5" cy="25.4" r="1.2" fill="#3b9eff" opacity="0.42"/>
    <circle cx="143.3" cy="35.2" r="1.1" fill="#70b8ff" opacity="0.51"/>
    <circle cx="563.6" cy="48.8" r="1.6" fill="#9281f7" opacity="0.5"/>
    <circle cx="117.5" cy="250.5" r="1.6" fill="#3b9eff" opacity="0.46"/>
    <circle cx="84.0" cy="35.4" r="1.4" fill="#70b8ff" opacity="0.45"/>
    <circle cx="152.6" cy="12.7" r="1.9" fill="#3b9eff" opacity="0.58"/>
    <circle cx="499.2" cy="13.8" r="2.5" fill="#70b8ff" opacity="0.49"/>
    <circle cx="638.1" cy="81.2" r="1.4" fill="#baa7ff" opacity="0.56"/>
    <circle cx="489.6" cy="230.4" r="1.1" fill="#70b8ff" opacity="0.17"/>
    <circle cx="900.3" cy="251.6" r="2.2" fill="#baa7ff" opacity="0.44"/>
    <circle cx="211.9" cy="155.1" r="1.2" fill="#3b9eff" opacity="0.51"/>
    <circle cx="259.7" cy="80.6" r="2.7" fill="#3b9eff" opacity="0.63"/>
    <circle cx="856.8" cy="290.6" r="1.5" fill="#9281f7" opacity="0.45"/>
    <circle cx="212.0" cy="62.7" r="2.1" fill="#70b8ff" opacity="0.55"/>
    <circle cx="769.1" cy="144.1" r="2.3" fill="#9281f7" opacity="0.57"/>
    <circle cx="605.8" cy="268.0" r="2.1" fill="#9281f7" opacity="0.46"/>
    <circle cx="168.1" cy="233.3" r="1.8" fill="#70b8ff" opacity="0.18"/>
    <circle cx="365.4" cy="121.6" r="1.8" fill="#3b9eff" opacity="0.26"/>
    <circle cx="121.4" cy="49.5" r="2.3" fill="#3b9eff" opacity="0.55"/>
    <circle cx="756.5" cy="288.3" r="1.5" fill="#9281f7" opacity="0.44"/>
    <circle cx="124.9" cy="10.1" r="2.1" fill="#3b9eff" opacity="0.56"/>
    <circle cx="853.7" cy="130.9" r="2.3" fill="#9281f7" opacity="0.55"/>
    <circle cx="234.7" cy="90.4" r="2.1" fill="#3b9eff" opacity="0.56"/>
    <circle cx="386.5" cy="43.7" r="1.7" fill="#3b9eff" opacity="0.63"/>
    <circle cx="535.7" cy="266.4" r="1.9" fill="#9281f7" opacity="0.16"/>
    <circle cx="488.9" cy="156.8" r="1.4" fill="#3b9eff" opacity="0.17"/>
    <circle cx="9.6" cy="236.2" r="1.6" fill="#70b8ff" opacity="0.31"/>
    <circle cx="511.3" cy="99.9" r="1.5" fill="#baa7ff" opacity="0.2"/>
    <circle cx="102.3" cy="167.4" r="1.4" fill="#70b8ff" opacity="0.42"/>
    <circle cx="467.0" cy="167.8" r="2.0" fill="#3b9eff" opacity="0.21"/>
    <circle cx="562.2" cy="151.6" r="1.7" fill="#9281f7" opacity="0.2"/>
    <circle cx="490.2" cy="143.7" r="1.7" fill="#70b8ff" opacity="0.22"/>
    <circle cx="861.5" cy="80.8" r="2.5" fill="#baa7ff" opacity="0.54"/>
    <circle cx="130.5" cy="41.0" r="1.2" fill="#3b9eff" opacity="0.51"/>
    <circle cx="72.4" cy="198.8" r="2.3" fill="#3b9eff" opacity="0.44"/>
    <circle cx="656.2" cy="196.2" r="2.0" fill="#baa7ff" opacity="0.19"/>
    <circle cx="205.4" cy="280.3" r="1.7" fill="#70b8ff" opacity="0.41"/>
    <circle cx="761.9" cy="52.5" r="2.0" fill="#9281f7" opacity="0.61"/>
    <circle cx="183.7" cy="97.7" r="1.2" fill="#3b9eff" opacity="0.57"/>
    <circle cx="405.9" cy="11.2" r="2.1" fill="#3b9eff" opacity="0.55"/>
    <circle cx="64.4" cy="289.7" r="2.3" fill="#3b9eff" opacity="0.38"/>
    <circle cx="247.1" cy="17.4" r="1.6" fill="#3b9eff" opacity="0.65"/>
    <circle cx="389.4" cy="268.5" r="1.1" fill="#3b9eff" opacity="0.2"/>
    <circle cx="840.6" cy="170.3" r="1.2" fill="#9281f7" opacity="0.52"/>
    <circle cx="630.9" cy="128.5" r="2.5" fill="#baa7ff" opacity="0.5"/>
    <circle cx="733.9" cy="30.1" r="1.4" fill="#baa7ff" opacity="0.69"/>
    <circle cx="418.0" cy="103.7" r="2.1" fill="#3b9eff" opacity="0.23"/>
    <circle cx="123.3" cy="157.8" r="1.2" fill="#3b9eff" opacity="0.44"/>
    <circle cx="51.7" cy="64.1" r="1.4" fill="#70b8ff" opacity="0.42"/>
    <circle cx="269.3" cy="150.0" r="1.7" fill="#3b9eff" opacity="0.52"/>
    <circle cx="233.4" cy="10.4" r="2.0" fill="#3b9eff" opacity="0.63"/>
    <circle cx="437.1" cy="275.2" r="1.8" fill="#3b9eff" opacity="0.16"/>
    <circle cx="455.5" cy="246.4" r="1.4" fill="#70b8ff" opacity="0.17"/>
    <circle cx="898.1" cy="104.7" r="2.1" fill="#baa7ff" opacity="0.53"/>
    <circle cx="373.5" cy="106.1" r="1.1" fill="#3b9eff" opacity="0.22"/>
    <circle cx="678.7" cy="79.6" r="1.3" fill="#baa7ff" opacity="0.57"/>
    <circle cx="796.4" cy="199.1" r="1.4" fill="#9281f7" opacity="0.47"/>
    <circle cx="423.2" cy="51.4" r="1.5" fill="#70b8ff" opacity="0.55"/>
    <circle cx="889.1" cy="163.6" r="2.5" fill="#9281f7" opacity="0.44"/>
    <circle cx="352.5" cy="142.7" r="1.2" fill="#3b9eff" opacity="0.23"/>
    <circle cx="10.5" cy="82.1" r="1.5" fill="#3b9eff" opacity="0.36"/>
    <circle cx="26.4" cy="93.6" r="1.8" fill="#3b9eff" opacity="0.38"/>
    <circle cx="687.5" cy="195.4" r="2.0" fill="#9281f7" opacity="0.22"/>
    <circle cx="302.1" cy="289.6" r="2.1" fill="#70b8ff" opacity="0.39"/>
    </g>
  </g>

  <!-- crisp graphite hairline on top of the clipped field -->
  <rect x="1" y="1" width="918" height="298" rx="22" fill="none" stroke="#292d30" stroke-width="1.5"/>

  <!-- lockup: orbit mark + wordmark -->
  <g transform="translate(210 82)">
    <g transform="translate(36 36)">
      <circle r="18.5" fill="none" stroke="#3b9eff" stroke-width="4"/>
      <circle cx="12.8" cy="-13" r="4.3" fill="#3b9eff"/>
      <circle r="5.9" fill="#9281f7"/>
    </g>
    <text x="90" y="50" font-family="'Helvetica Neue',Arial,sans-serif" font-size="46" font-weight="700" fill="#ffffff" letter-spacing="-1.5">Parler Protocol</text>
  </g>

  <!-- tagline -->
  <text x="460" y="212" text-anchor="middle" font-family="'Helvetica Neue',Arial,sans-serif" font-size="22" font-weight="600" fill="#f0f0f0">Chat protocol for AI agents</text>
  <text x="460" y="241" text-anchor="middle" font-family="'Helvetica Neue',Arial,sans-serif" font-size="15" fill="#a1a4a5">Discover, verify, and talk to every agent on the mesh — without copy&#8209;pasting.</text>

  <!-- a small mesh of agents, connected -->
  <line x1="384" y1="270" x2="536" y2="270" stroke="#292d30" stroke-width="1.5"/>
  <circle cx="384" cy="270" r="3" fill="#3b9eff"/>
  <circle cx="422" cy="270" r="3" fill="#9281f7"/>
  <circle cx="460" cy="270" r="4" fill="#baa7ff"/>
  <circle cx="498" cy="270" r="3" fill="#9281f7"/>
  <circle cx="536" cy="270" r="3" fill="#3ad389"/>
</svg>
